<svg xmlns="http://www.w3.org/2000/svg" version="1.1" xmlns:xlink="http://www.w3.org/1999/xlink" xmlns:svgjs="http://svgjs.dev/svgjs" width="1500" height="1500" viewBox="0 0 1500 1500"><rect width="1500" height="1500" fill="#ffffff"></rect><g transform="matrix(0.6666666666666666,0,0,0.6666666666666666,249.39442299084146,632.5866598344699)"><svg viewBox="0 0 396 93" data-background-color="#ffffff" preserveAspectRatio="xMidYMid meet" height="352" width="1500" xmlns="http://www.w3.org/2000/svg" xmlns:xlink="http://www.w3.org/1999/xlink"><g id="tight-bounds" transform="matrix(1,0,0,1,0.2398084956267894,0.03170725310073408)"><svg viewBox="0 0 395.52 92.93658549379855" height="92.93658549379855" width="395.52"><g><svg viewBox="0 0 495.6795419288008 116.47138988165682" height="92.93658549379855" width="395.52"><g transform="matrix(1,0,0,1,139.5590219288008,0)"><svg viewBox="0 0 356.12052 116.47138988165682" height="116.47138988165682" width="356.12052"><g><path d="M0 116.471v-116.471h356.121v116.471z" fill="#000000" stroke="transparent" stroke-width="0" rx="0%" data-fill-palette-color="tertiary"></path><path d="M3.283 113.188v-109.905h349.554v109.905z" fill="#ffffff" stroke="transparent" stroke-width="0" rx="0%" data-fill-palette-color="quaternary"></path><path d="M9.85 106.622v-96.772h336.421v96.772z" fill="#000000" stroke="transparent" stroke-width="0" data-fill-palette-color="tertiary"></path></g><g transform="matrix(1,0,0,1,19.69974,19.69974)" id="textblocktransform"><svg viewBox="0 0 316.72104 77.07190988165682" height="77.07190988165682" width="316.72104" id="textblock"><g><svg viewBox="0 0 316.72104 77.07190988165682" height="77.07190988165682" width="316.72104"><g transform="matrix(1,0,0,1,0,0)"><svg width="316.72104" viewBox="1.5 -36.3 202.78 49.349999999999994" height="77.07190988165682" data-palette-color="#ffffff"><path d="M9.8-28.45Q7.95-26.85 6.13-26.05 4.3-25.25 2.15-25.25L2.15-25.25 1.5-27.85Q3-27.85 4.58-28.5 6.15-29.15 7.65-30.1 9.15-31.05 12.4-33.25L12.4-33.25 12.8-33.25 12.8 0 9.8 0 9.8-28.45ZM27.4-28.45Q25.55-26.85 23.72-26.05 21.9-25.25 19.75-25.25L19.75-25.25 19.1-27.85Q20.6-27.85 22.17-28.5 23.75-29.15 25.25-30.1 26.75-31.05 30-33.25L30-33.25 30.4-33.25 30.4 0 27.4 0 27.4-28.45ZM37.5-0.65Q37.5-4.4 39.65-7.25 41.8-10.1 46.15-13.4L46.15-13.4 47.8-14.6Q50.1-16.25 51.5-17.48 52.9-18.7 53.87-20.35 54.85-22 54.85-24.05L54.85-24.05Q54.85-26.85 53-28.55 51.15-30.25 48-30.25L48-30.25Q45-30.25 42.87-28.65 40.75-27.05 39.9-24.15L39.9-24.15 37.55-25.35Q40.2-32.75 48.05-32.75L48.05-32.75Q52.65-32.75 55.15-30.43 57.65-28.1 57.65-24L57.65-24Q57.65-21.3 56.62-19.33 55.6-17.35 54.02-15.93 52.45-14.5 49.6-12.4L49.6-12.4Q47.6-11 46-9.65L46-9.65Q43.65-7.7 42.4-6.23 41.15-4.75 40.7-2.85L40.7-2.85 59.3-2.85 59.3 0 37.5 0 37.5-0.65ZM103.79-2.8L105.04-0.35Q104.04 0.35 102.84 0.35L102.84 0.35Q101.39 0.35 100.54-0.23 99.69-0.8 99.09-1.6L99.09-1.6 93.14-9.65Q91.39-12 90.07-12.83 88.74-13.65 86.44-13.8L86.44-13.8 86.44-16.6 90.79-16.6Q94.04-16.6 95.99-18.55 97.94-20.5 97.94-23.85L97.94-23.85Q97.94-27.15 96.09-29.28 94.24-31.4 91.34-31.4L91.34-31.4 83.34-31.4 83.34 0 80.34 0 80.34-34.2 91.54-34.2Q94.24-34.2 96.37-32.88 98.49-31.55 99.72-29.25 100.94-26.95 100.94-24.15L100.94-24.15Q100.94-21.5 99.89-19.45 98.84-17.4 97.39-16.2 95.94-15 94.69-14.75L94.69-14.75Q93.84-14.6 92.72-14.63 91.59-14.65 91.54-14.65L91.54-14.65Q93.14-14.3 94.29-12.8L94.29-12.8 96.29-10.05Q97.19-8.85 99.02-6.35 100.84-3.85 101.39-3.25L101.39-3.25Q101.74-2.85 102.02-2.68 102.29-2.5 102.79-2.5L102.79-2.5Q103.44-2.5 103.79-2.8L103.79-2.8ZM108.69-11.45Q108.74-7.95 110.39-5.05 112.04-2.15 116.99-2.15L116.99-2.15Q119.14-2.15 120.96-2.7 122.79-3.25 124.94-4.5L124.94-4.5 126.24-2.4Q124.24-1.05 121.79-0.25 119.34 0.55 116.79 0.55L116.79 0.55Q111.54 0.55 108.61-2.83 105.69-6.2 105.69-11.7L105.69-11.7Q105.69-15.25 106.99-18.38 108.29-21.5 110.84-23.45 113.39-25.4 116.84-25.4L116.84-25.4Q119.74-25.4 122.11-24.03 124.49-22.65 125.86-20.28 127.24-17.9 127.24-15L127.24-15Q127.24-14.2 127.19-13.58 127.14-12.95 127.09-12.5L127.09-12.5 126.99-11.45 108.69-11.45ZM108.84-14.15L124.19-14.15Q124.24-14.5 124.24-15.15L124.24-15.15Q124.24-17.25 123.24-18.98 122.24-20.7 120.54-21.7 118.84-22.7 116.79-22.7L116.79-22.7Q113.74-22.7 111.56-20.48 109.39-18.25 108.84-14.15L108.84-14.15ZM150.14 0.4Q149.19-0.35 148.61-1.25 148.04-2.15 147.54-3.6L147.54-3.6Q146.54-1.65 144.56-0.58 142.59 0.5 139.79 0.5L139.79 0.5Q135.84 0.5 133.46-1.6 131.09-3.7 131.09-7.3L131.09-7.3Q131.09-11.1 133.76-13.2 136.44-15.3 141.34-15.3L141.34-15.3 147.14-15.3 147.14-17.1Q147.14-20.1 145.84-21.55 144.54-23 141.84-23L141.84-23Q139.84-23 137.74-22.28 135.64-21.55 133.99-20.3L133.99-20.3 132.64-22.5Q134.49-24.05 136.91-24.88 139.34-25.7 141.89-25.7L141.89-25.7Q145.94-25.7 148.04-23.63 150.14-21.55 150.14-17.65L150.14-17.65 150.14-7.2Q150.14-3.35 152.09-1.25L152.09-1.25 150.14 0.4ZM139.84-2.2Q143.19-2.2 145.16-4.05 147.14-5.9 147.14-8.85L147.14-8.85 147.14-12.6 142.04-12.6Q137.79-12.6 135.94-11.38 134.09-10.15 134.09-7.35L134.09-7.35Q134.09-4.85 135.59-3.53 137.09-2.2 139.84-2.2L139.84-2.2ZM158.03 0L158.03-36.3 161.03-36.3 161.03 0 158.03 0ZM175.78 0.7Q172.18 0.7 170.41-1.2 168.63-3.1 168.63-7.2L168.63-7.2 168.63-31.25 171.63-31.25 171.63-25 179.48-25 179.48-22.3 171.63-22.3 171.63-7.2Q171.63-4.05 172.81-3.03 173.98-2 175.73-2L175.73-2Q176.78-2 177.48-2.13 178.18-2.25 179.03-2.75L179.03-2.75 180.38-0.45Q178.53 0.7 175.78 0.7L175.78 0.7ZM185.18 10.6Q187.98 10.6 189.43 9.55L189.43 9.55Q190.13 9.1 190.68 8.33 191.23 7.55 191.53 6.6L191.53 6.6 193.43 0.65 182.48-25.15 185.63-25.15 194.63-3.05 201.18-25.15 204.28-25.15 194.13 7.5Q193.23 10.2 191.18 11.6L191.18 11.6Q189.03 13.05 185.53 13.05L185.53 13.05 185.18 10.6Z" opacity="1" transform="matrix(1,0,0,1,0,0)" fill="#ffffff" class="wordmark-text-0" data-fill-palette-color="quaternary" id="text-0"></path></svg></g></svg></g></svg></g></svg></g><g transform="matrix(1,0,0,1,0,4.979005212603539)"><svg viewBox="0 0 132.99244192880082 106.51337945644974" height="106.51337945644974" width="132.99244192880082"><g><svg xmlns="http://www.w3.org/2000/svg" xmlns:xlink="http://www.w3.org/1999/xlink" version="1.1" x="0" y="0" viewBox="11.873928871476872 23.812 120.33367691735613 96.37500000000001" enable-background="new 0 0 144.083 144" xml:space="preserve" height="106.51337945644974" width="132.99244192880082" class="icon-icon-0" data-fill-palette-color="accent" id="icon-0"><rect x="38.758" y="93.806" width="6" height="11.723" fill="#000000" data-fill-palette-color="accent"></rect><rect x="27.758" y="93.806" width="6" height="11.723" fill="#000000" data-fill-palette-color="accent"></rect><rect x="109.446" y="93.806" width="6" height="11.723" fill="#000000" data-fill-palette-color="accent"></rect><rect x="98.446" y="93.806" width="6" height="11.723" fill="#000000" data-fill-palette-color="accent"></rect><path d="M132.122 82.455l-10-40.911c-0.328-1.343-1.531-2.288-2.914-2.288H50.292V26.812c0-1.657-1.343-3-3-3h-14c-1.657 0-3 1.343-3 3v12.445h-5.416c-1.382 0-2.586 0.945-2.914 2.288L11.96 82.455c-0.219 0.895-0.015 1.84 0.554 2.564s1.439 1.147 2.36 1.147h1.733v31.021c0 1.657 1.343 3 3 3h33.275 9.747 18.824H91.2h33.275c1.658 0 3-1.343 3-3V86.167h1.732c0.922 0 1.791-0.423 2.359-1.147C132.137 84.295 132.34 83.35 132.122 82.455zM119.31 55.311l6.077 24.856H94.2V67.776c0-0.707-0.25-1.391-0.705-1.932l-8.867-10.534H119.31zM72.219 49.887L88.2 68.871v45.317H55.883v-45.3L72.219 49.887zM117.843 49.311H79.577l-3.412-4.054h40.688L117.843 49.311zM36.292 29.812h8v9.445h-8V29.812zM27.23 45.257h41.056l-3.485 4.054H26.24L27.23 45.257zM24.773 55.311h34.871l-9.035 10.51c-0.468 0.544-0.725 1.238-0.725 1.956v12.391H18.696L24.773 55.311zM22.608 86.167h27.275v28.021H22.608V86.167zM121.475 114.188H94.2V86.167h27.275V114.188z" fill="#000000" data-fill-palette-color="accent"></path><path d="M64.224 102.667h15.634c1.658 0 3-1.343 3-3V86.213c0-5.965-4.852-10.816-10.816-10.816-5.965 0-10.818 4.852-10.818 10.816v13.454C61.224 101.324 62.566 102.667 64.224 102.667zM67.224 86.213c0-2.656 2.161-4.816 4.818-4.816 2.656 0 4.816 2.16 4.816 4.816v10.454h-9.634V86.213z" fill="#000000" data-fill-palette-color="accent"></path></svg></g></svg></g></svg></g><defs></defs></svg><rect width="395.52" height="92.93658549379855" fill="none" stroke="none" visibility="hidden"></rect></g></svg></g></svg>